<svg width="24" height="23" viewBox="0 0 24 23" fill="none" xmlns="http://www.w3.org/2000/svg">
<path d="M13.546 0.666871C12.7404 -0.138752 11.4342 -0.138754 10.6286 0.66687L1.57127 9.72421C0.765652 10.5298 0.765649 11.836 1.57127 12.6416L10.6286 21.699C11.4342 22.5046 12.7404 22.5046 13.546 21.699L22.6034 12.6416C23.409 11.836 23.409 10.5298 22.6034 9.72421L13.546 0.666871ZM12.0873 5.62274C12.8316 5.62274 13.4131 6.26533 13.339 7.00588L12.8515 11.8813C12.8122 12.2739 12.4819 12.5729 12.0873 12.5729C11.6928 12.5729 11.3624 12.2739 11.3231 11.8813L10.8356 7.00588C10.7615 6.26533 11.3431 5.62274 12.0873 5.62274ZM12.0895 13.9629C12.8572 13.9629 13.4795 14.5853 13.4795 15.353C13.4795 16.1207 12.8572 16.743 12.0895 16.743C11.3218 16.743 10.6994 16.1207 10.6994 15.353C10.6994 14.5853 11.3218 13.9629 12.0895 13.9629Z" fill="#FF0000"/>
</svg>

