<svg width="23" height="23" viewBox="0 0 23 23" fill="none" xmlns="http://www.w3.org/2000/svg">
<path fill-rule="evenodd" clip-rule="evenodd" d="M3.22899 0.0626221C1.57213 0.0626221 0.228989 1.40577 0.228989 3.06262V19.3032C0.228989 20.96 1.57213 22.3032 3.22899 22.3032H19.4695C21.1264 22.3032 22.4695 20.96 22.4695 19.3032V3.06262C22.4695 1.40577 21.1264 0.0626221 19.4695 0.0626221H3.22899ZM8.63327 9.29432V17.4761H10.5615V9.29432H8.63327ZM8.81438 7.82948C9.03455 8.03189 9.29733 8.1331 9.60273 8.1331C9.91168 8.1331 10.1745 8.03189 10.3911 7.82948C10.6113 7.62351 10.7213 7.37671 10.7213 7.08907C10.7213 6.79787 10.6113 6.55107 10.3911 6.34865C10.1745 6.14269 9.91168 6.03971 9.60273 6.03971C9.29733 6.03971 9.03455 6.14269 8.81438 6.34865C8.59421 6.55107 8.48412 6.79787 8.48412 7.08907C8.48412 7.37671 8.59421 7.62351 8.81438 7.82948Z" fill="#3A6287"/>
</svg>

