<svg width="22" height="20" viewBox="0 0 22 20" fill="none" xmlns="http://www.w3.org/2000/svg">
<path d="M12.2335 1.24001C11.6657 0.190219 10.2942 0.190219 9.72645 1.24001L0.955229 17.4571C0.370605 18.538 1.07247 19.9131 2.20877 19.9131L19.7512 19.9131C20.8875 19.9131 21.5894 18.538 21.0048 17.4571L12.2335 1.24001ZM10.978 6.0128C11.6629 6.0128 12.1981 6.65539 12.1299 7.39593L11.6812 12.2714C11.6451 12.664 11.3411 12.963 10.978 12.963C10.6149 12.963 10.3109 12.664 10.2748 12.2714L9.82613 7.39593C9.75798 6.65539 10.2931 6.0128 10.978 6.0128ZM10.98 14.353C11.6865 14.353 12.2592 14.9753 12.2592 15.743C12.2592 16.5107 11.6865 17.1331 10.98 17.1331C10.2735 17.1331 9.70082 16.5107 9.70082 15.743C9.70082 14.9753 10.2735 14.353 10.98 14.353Z" fill="#F1AB24"/>
</svg>

